# xmcd
# 
# Track frame offsets:
#     150
#     22179
#     51199
#     74213
#     93510
#     114917
#     140207
#     165901
#     186921
#     206105
#     235530
#     278969
#     296109
# 
# Disc length: 4252
# 
# Revision: 1
# Processed by: cddbd v1.5.2PL0 Copyright (c) Steve Scherf et al.
# Submitted via: BonkEnc v1.0.8
# 
DISCID=cd109a0d
DTITLE=Stevie Ray Vaughan and Double Trouble - Live Alive
DYEAR=1986
DGENRE=Blues
TTITLE0=Say What!
TTITLE1=Ain't Gone 'N' Give Up On Love
TTITLE2=Pride and Joy
TTITLE3=Mary Had A Little Lamb
TTITLE4=Superstition
TTITLE5=I'm Leaving You (Commit A Crime)
TTITLE6=Cold Shot
TTITLE7=Willie The Wimp
TTITLE8=Look At Little Sister
TTITLE9=Texas Flood
TTITLE10=Voodoo Chile (Slight Return)
TTITLE11=Love Struck Baby
TTITLE12=Change It
EXTD=
EXTT0=
EXTT1=
EXTT2=
EXTT3=
EXTT4=
EXTT5=
EXTT6=
EXTT7=
EXTT8=
EXTT9=
EXTT10=
EXTT11=
EXTT12=
PLAYORDER=
